<mxfile host="app.diagrams.net" agent="Mozilla/5.0 (Windows NT 10.0; Win64; x64) AppleWebKit/537.36 (KHTML, like Gecko) Chrome/141.0.0.0 Safari/537.36 Edg/141.0.0.0" version="28.2.5">
  <diagram name="Trang-1" id="3b4nSoBzSmbdG8Wnd5Co">
    <mxGraphModel dx="1273" dy="570" grid="1" gridSize="10" guides="1" tooltips="1" connect="1" arrows="1" fold="1" page="1" pageScale="1" pageWidth="3300" pageHeight="4681" math="0" shadow="0">
      <root>
        <mxCell id="0" />
        <mxCell id="1" parent="0" />
        <mxCell id="MbePaW3NE5h9Q77ct022-3" value="" style="edgeStyle=orthogonalEdgeStyle;rounded=0;orthogonalLoop=1;jettySize=auto;html=1;" edge="1" parent="1" source="MbePaW3NE5h9Q77ct022-1" target="MbePaW3NE5h9Q77ct022-2">
          <mxGeometry relative="1" as="geometry" />
        </mxCell>
        <mxCell id="MbePaW3NE5h9Q77ct022-1" value="Start" style="strokeWidth=2;html=1;shape=mxgraph.flowchart.start_1;whiteSpace=wrap;" vertex="1" parent="1">
          <mxGeometry x="470" y="150" width="100" height="60" as="geometry" />
        </mxCell>
        <mxCell id="MbePaW3NE5h9Q77ct022-5" value="" style="edgeStyle=orthogonalEdgeStyle;rounded=0;orthogonalLoop=1;jettySize=auto;html=1;" edge="1" parent="1" source="MbePaW3NE5h9Q77ct022-2" target="MbePaW3NE5h9Q77ct022-4">
          <mxGeometry relative="1" as="geometry" />
        </mxCell>
        <mxCell id="MbePaW3NE5h9Q77ct022-2" value="Nhập n" style="shape=parallelogram;html=1;strokeWidth=2;perimeter=parallelogramPerimeter;whiteSpace=wrap;rounded=1;arcSize=12;size=0.23;" vertex="1" parent="1">
          <mxGeometry x="460" y="250" width="120" height="60" as="geometry" />
        </mxCell>
        <mxCell id="MbePaW3NE5h9Q77ct022-7" value="" style="edgeStyle=orthogonalEdgeStyle;rounded=0;orthogonalLoop=1;jettySize=auto;html=1;" edge="1" parent="1" source="MbePaW3NE5h9Q77ct022-4" target="MbePaW3NE5h9Q77ct022-6">
          <mxGeometry relative="1" as="geometry" />
        </mxCell>
        <mxCell id="MbePaW3NE5h9Q77ct022-4" value="&#xa;&lt;strong style=&quot;box-sizing: border-box; margin: 0px; padding: 0px; font-weight: bolder; color: rgb(0, 0, 0); font-family: Arial, sans-serif; font-size: 16px; font-style: normal; font-variant-ligatures: normal; font-variant-caps: normal; letter-spacing: normal; orphans: 2; text-align: start; text-indent: 0px; text-transform: none; widows: 2; word-spacing: 0px; -webkit-text-stroke-width: 0px; white-space: pre-wrap; background-color: rgb(255, 255, 255); text-decoration-thickness: initial; text-decoration-style: initial; text-decoration-color: initial;&quot;&gt;d1 = n % 10&lt;/strong&gt;&#xa;&#xa;" style="rounded=1;whiteSpace=wrap;html=1;absoluteArcSize=1;arcSize=14;strokeWidth=2;" vertex="1" parent="1">
          <mxGeometry x="470" y="370" width="100" height="70" as="geometry" />
        </mxCell>
        <mxCell id="MbePaW3NE5h9Q77ct022-9" value="" style="edgeStyle=orthogonalEdgeStyle;rounded=0;orthogonalLoop=1;jettySize=auto;html=1;" edge="1" parent="1" source="MbePaW3NE5h9Q77ct022-6" target="MbePaW3NE5h9Q77ct022-8">
          <mxGeometry relative="1" as="geometry" />
        </mxCell>
        <mxCell id="MbePaW3NE5h9Q77ct022-6" value="&#xa;&lt;strong style=&quot;box-sizing: border-box; margin: 0px; padding: 0px; font-weight: bolder; color: rgb(0, 0, 0); font-family: Arial, sans-serif; font-size: 16px; font-style: normal; font-variant-ligatures: normal; font-variant-caps: normal; letter-spacing: normal; orphans: 2; text-align: start; text-indent: 0px; text-transform: none; widows: 2; word-spacing: 0px; -webkit-text-stroke-width: 0px; white-space: pre-wrap; background-color: rgb(255, 255, 255); text-decoration-thickness: initial; text-decoration-style: initial; text-decoration-color: initial;&quot;&gt;d2 = (n / 10) % 10&lt;/strong&gt;&#xa;&#xa;" style="rounded=1;whiteSpace=wrap;html=1;absoluteArcSize=1;arcSize=14;strokeWidth=2;" vertex="1" parent="1">
          <mxGeometry x="470" y="480" width="100" height="70" as="geometry" />
        </mxCell>
        <mxCell id="MbePaW3NE5h9Q77ct022-11" value="" style="edgeStyle=orthogonalEdgeStyle;rounded=0;orthogonalLoop=1;jettySize=auto;html=1;" edge="1" parent="1" source="MbePaW3NE5h9Q77ct022-8" target="MbePaW3NE5h9Q77ct022-10">
          <mxGeometry relative="1" as="geometry" />
        </mxCell>
        <mxCell id="MbePaW3NE5h9Q77ct022-8" value="&#xa;&lt;strong style=&quot;box-sizing: border-box; margin: 0px; padding: 0px; font-weight: bolder; color: rgb(0, 0, 0); font-family: Arial, sans-serif; font-size: 16px; font-style: normal; font-variant-ligatures: normal; font-variant-caps: normal; letter-spacing: normal; orphans: 2; text-align: start; text-indent: 0px; text-transform: none; widows: 2; word-spacing: 0px; -webkit-text-stroke-width: 0px; white-space: pre-wrap; background-color: rgb(255, 255, 255); text-decoration-thickness: initial; text-decoration-style: initial; text-decoration-color: initial;&quot;&gt;d3 = n / 100&lt;/strong&gt;&#xa;&#xa;" style="rounded=1;whiteSpace=wrap;html=1;absoluteArcSize=1;arcSize=14;strokeWidth=2;" vertex="1" parent="1">
          <mxGeometry x="470" y="610" width="100" height="70" as="geometry" />
        </mxCell>
        <mxCell id="MbePaW3NE5h9Q77ct022-13" value="" style="edgeStyle=orthogonalEdgeStyle;rounded=0;orthogonalLoop=1;jettySize=auto;html=1;" edge="1" parent="1" source="MbePaW3NE5h9Q77ct022-10" target="MbePaW3NE5h9Q77ct022-12">
          <mxGeometry relative="1" as="geometry" />
        </mxCell>
        <mxCell id="MbePaW3NE5h9Q77ct022-10" value="&#xa;&lt;span style=&quot;box-sizing: border-box; margin: 0px; padding: 0px; color: rgb(0, 0, 0); font-family: Arial, sans-serif; font-size: 16px; font-style: normal; font-variant: normal; font-weight: 400; letter-spacing: normal; orphans: 2; text-align: start; text-indent: 0px; text-transform: none; widows: 2; word-spacing: 0px; -webkit-text-stroke-width: 0px; white-space: pre-wrap; background-color: rgb(255, 255, 255); text-decoration: none; vertical-align: baseline;&quot;&gt;&amp;nbsp;&lt;/span&gt;&lt;span style=&quot;box-sizing: border-box; margin: 0px; padding: 0px; color: rgb(0, 0, 0); font-family: Arial, sans-serif; font-size: 16px; font-style: normal; font-variant: normal; font-weight: 400; letter-spacing: normal; orphans: 2; text-align: start; text-indent: 0px; text-transform: none; widows: 2; word-spacing: 0px; -webkit-text-stroke-width: 0px; white-space: pre-wrap; background-color: rgb(255, 255, 255); text-decoration: none; vertical-align: baseline;&quot;&gt;&lt;strong style=&quot;box-sizing: border-box; margin: 0px; padding: 0px; font-weight: bolder;&quot;&gt;reverse = d1 * 100 + d2 * 10 + d3&lt;/strong&gt;&lt;/span&gt;&#xa;&#xa;" style="rounded=1;whiteSpace=wrap;html=1;absoluteArcSize=1;arcSize=14;strokeWidth=2;" vertex="1" parent="1">
          <mxGeometry x="290" y="595" width="120" height="100" as="geometry" />
        </mxCell>
        <mxCell id="MbePaW3NE5h9Q77ct022-15" value="" style="edgeStyle=orthogonalEdgeStyle;rounded=0;orthogonalLoop=1;jettySize=auto;html=1;" edge="1" parent="1" source="MbePaW3NE5h9Q77ct022-12" target="MbePaW3NE5h9Q77ct022-14">
          <mxGeometry relative="1" as="geometry" />
        </mxCell>
        <mxCell id="MbePaW3NE5h9Q77ct022-12" value="In ra reverse" style="shape=parallelogram;html=1;strokeWidth=2;perimeter=parallelogramPerimeter;whiteSpace=wrap;rounded=1;arcSize=12;size=0.23;" vertex="1" parent="1">
          <mxGeometry x="290" y="470" width="120" height="60" as="geometry" />
        </mxCell>
        <mxCell id="MbePaW3NE5h9Q77ct022-14" value="End" style="strokeWidth=2;html=1;shape=mxgraph.flowchart.start_1;whiteSpace=wrap;" vertex="1" parent="1">
          <mxGeometry x="300" y="330" width="100" height="60" as="geometry" />
        </mxCell>
      </root>
    </mxGraphModel>
  </diagram>
</mxfile>
